<?xml version="1.0" standalone="no"?>
<!DOCTYPE svg PUBLIC "-//W3C//DTD SVG 20010904//EN"
 "http://www.w3.org/TR/2001/REC-SVG-20010904/DTD/svg10.dtd">
<svg version="1.0" xmlns="http://www.w3.org/2000/svg"
 width="625.000000pt" height="625.000000pt" viewBox="0 0 625.000000 625.000000"
 preserveAspectRatio="xMidYMid meet">
<metadata>
Created by potrace 1.14, written by Peter Selinger 2001-2017
</metadata>
<g transform="translate(0.000000,625.000000) scale(0.100000,-0.100000)"
fill="#000000" stroke="none">
<path d="M2870 5350 c-886 -42 -1468 -182 -1871 -449 -57 -38 -132 -95 -166
-126 l-63 -57 0 -73 c0 -95 -15 -164 -51 -242 -37 -78 -85 -138 -229 -288
-157 -163 -179 -201 -200 -351 -23 -166 15 -312 160 -614 153 -320 165 -373
164 -705 0 -185 -6 -259 -32 -465 -44 -342 -52 -440 -52 -635 l0 -170 39 -70
c108 -193 276 -327 506 -404 311 -104 761 -91 1325 39 176 41 379 82 564 114
211 37 306 73 603 223 144 73 389 192 545 263 634 293 888 449 1115 683 123
127 169 196 224 335 85 218 126 278 341 499 171 176 244 274 278 377 45 135
45 332 0 466 -42 128 -125 230 -336 416 -156 138 -248 242 -293 333 -15 31
-53 121 -84 201 -34 87 -77 176 -107 222 -112 171 -303 354 -440 421 l-65 32
-265 1 c-146 1 -362 6 -480 13 -297 15 -907 21 -1130 11z m1345 -134 c364 -13
417 -16 475 -35 141 -45 253 -137 354 -290 35 -53 120 -208 190 -346 74 -148
148 -280 181 -323 l55 -73 -143 3 c-103 2 -151 -1 -174 -11 -18 -7 -33 -16
-33 -20 0 -3 60 -6 133 -6 155 0 221 -15 347 -77 68 -33 102 -59 171 -127 93
-93 145 -182 174 -296 32 -128 10 -291 -57 -418 -67 -125 -205 -257 -345 -330
-35 -17 -63 -36 -63 -40 0 -19 32 -17 65 3 42 26 62 17 25 -11 -117 -90 -128
-106 -205 -314 -30 -82 -74 -178 -97 -214 -54 -84 -249 -279 -353 -353 -220
-156 -416 -263 -875 -478 -190 -89 -410 -197 -490 -240 -80 -43 -194 -103
-255 -132 l-109 -53 -121 3 c-136 3 -171 -4 -365 -74 -428 -154 -1057 -224
-1430 -159 -121 22 -272 72 -347 116 -128 75 -235 213 -251 324 -12 81 5 378
37 670 55 491 60 666 25 895 -24 158 -64 261 -147 385 -37 55 -39 58 -14 43
14 -10 70 -35 124 -56 54 -21 116 -50 138 -65 32 -22 41 -24 47 -13 23 41 -27
84 -142 121 -81 26 -148 62 -161 86 -44 83 -64 275 -39 370 42 154 166 276
338 333 117 38 200 49 343 44 73 -3 129 -1 129 4 0 5 -21 18 -47 30 -46 20
-48 20 -171 3 -86 -12 -147 -15 -199 -10 -70 6 -78 5 -136 -24 -153 -76 -270
-221 -307 -381 -16 -68 -16 -210 -1 -270 22 -81 22 -85 2 -50 -45 83 -59 289
-27 409 26 99 59 150 203 308 179 197 213 268 213 448 l0 73 94 90 c210 201
464 329 733 369 112 16 178 14 563 -18 157 -13 322 -1 658 46 447 62 638 64
862 9 215 -53 374 -130 697 -335 231 -147 333 -205 333 -190 0 5 -69 62 -152
125 -398 298 -686 432 -1023 477 -158 21 -436 6 -795 -42 -295 -39 -330 -42
-550 -42 -335 0 -353 12 -70 47 706 85 1229 107 1985 82z"/>
<path d="M3085 4989 c-44 -4 -138 -17 -210 -28 -287 -45 -389 -55 -605 -55
-193 0 -230 2 -360 27 -245 46 -352 34 -438 -50 -27 -26 -42 -47 -35 -50 14
-5 65 20 109 53 38 29 60 30 269 5 403 -48 786 -53 975 -11 330 73 315 71 515
72 205 0 324 -14 498 -57 253 -64 528 -207 756 -392 120 -97 121 -98 121 -82
0 25 -214 224 -309 288 -225 149 -475 240 -766 276 -127 16 -386 18 -520 4z"/>
<path d="M3250 4804 c-14 -3 -44 -7 -67 -10 -94 -12 -33 -20 155 -21 534 -2
901 -117 1071 -336 52 -67 64 -62 27 11 -84 165 -349 299 -686 347 -96 13
-430 19 -500 9z"/>
<path d="M1822 4740 c-139 -18 -273 -61 -342 -111 -27 -20 -50 -48 -66 -82
-25 -54 -50 -155 -40 -164 3 -3 19 24 36 61 81 170 260 256 534 256 123 0 266
-23 370 -59 47 -17 61 -18 68 -9 16 27 8 49 -24 62 -92 38 -392 64 -536 46z"/>
<path d="M3167 4698 c-85 -107 -87 -111 -87 -176 0 -64 13 -112 30 -112 6 0
10 25 10 58 0 78 33 145 100 205 43 38 51 50 39 58 -30 19 -58 9 -92 -33z"/>
<path d="M2227 4563 c-13 -12 -7 -22 39 -74 l45 -51 -6 -97 c-7 -88 -6 -98 14
-121 l20 -25 1 137 c0 136 0 137 -31 187 -23 36 -38 51 -54 51 -12 0 -25 -3
-28 -7z"/>
<path d="M3565 4405 c-170 -32 -304 -84 -410 -160 -97 -69 -157 -149 -157
-210 0 -53 31 -92 125 -157 l89 -60 97 46 c309 145 607 190 857 130 134 -32
222 -31 272 4 17 13 32 31 32 41 0 36 -63 142 -117 195 -65 66 -179 126 -298
157 -106 28 -372 35 -490 14z m74 -228 c19 -50 16 -54 -55 -60 -56 -4 -86 -15
-188 -66 -92 -47 -131 -61 -163 -61 -49 0 -57 9 -49 56 14 74 113 138 316 204
l115 38 7 -41 c3 -23 11 -55 17 -70z m626 -26 c34 -19 50 -60 19 -46 -11 5
-45 13 -76 18 -55 10 -76 27 -62 49 9 14 81 1 119 -21z"/>
<path d="M1621 4260 c-35 -10 -82 -31 -105 -47 -48 -34 -108 -118 -104 -146 6
-39 136 -69 394 -92 220 -20 327 -38 402 -68 l57 -23 3 -110 3 -109 -183 -144
c-224 -177 -336 -254 -463 -317 l-99 -49 46 -3 c47 -3 87 12 218 83 36 19 68
35 73 35 4 0 17 -20 29 -45 26 -54 44 -57 93 -14 l35 31 149 -146 c83 -81 166
-153 185 -161 75 -32 132 -10 183 71 46 72 50 97 18 114 -23 12 -29 12 -53 -3
-77 -50 -89 -53 -138 -29 -25 12 -67 43 -94 68 -54 51 -130 161 -130 189 0 35
50 83 149 144 55 34 103 66 106 72 4 5 9 73 11 151 3 78 9 147 15 154 6 7 38
23 71 36 82 31 120 67 116 110 -3 30 -7 34 -44 42 -28 5 -58 4 -99 -7 l-58
-15 -52 52 c-81 81 -246 154 -419 185 -91 17 -241 12 -315 -9z m230 -122 c32
-12 29 -13 -61 -19 -56 -3 -109 -1 -130 5 -33 10 -29 11 50 17 47 3 90 6 96 7
6 1 26 -4 45 -10z"/>
<path d="M4530 4139 c0 -14 75 -45 129 -54 54 -9 37 -25 -26 -25 -48 0 -56
-15 -17 -30 38 -15 101 -12 134 5 50 26 74 97 27 79 -8 -3 -54 4 -102 15 -96
23 -145 27 -145 10z"/>
<path d="M5078 4083 c-16 -2 -28 -8 -28 -13 0 -10 64 -17 225 -25 188 -8 284
-42 370 -130 28 -28 63 -76 80 -106 28 -52 29 -60 33 -206 10 -359 -80 -548
-290 -608 -32 -9 -58 -21 -58 -26 0 -16 77 -9 126 12 78 33 194 111 199 133
115 492 62 785 -162 904 -100 52 -154 64 -318 67 -82 2 -162 1 -177 -2z"/>
<path d="M4530 4000 c-13 -9 -11 -13 10 -30 27 -21 78 -36 88 -26 8 9 -38 53
-63 60 -11 3 -27 1 -35 -4z"/>
<path d="M4890 3965 c-38 -8 -130 -47 -225 -94 -195 -97 -241 -111 -362 -111
-122 0 -179 20 -292 104 -88 66 -161 105 -194 106 -16 0 -18 -5 -12 -42 13
-74 36 -117 91 -167 60 -55 128 -85 242 -107 239 -46 597 22 758 145 61 46
122 57 231 42 157 -23 256 -88 314 -207 26 -52 33 -81 37 -142 3 -70 0 -87
-33 -177 -39 -104 -49 -186 -26 -208 10 -10 23 -1 66 45 175 187 175 445 2
635 -108 118 -253 182 -432 189 -65 2 -123 -1 -165 -11z"/>
<path d="M836 3905 c-82 -34 -146 -77 -151 -100 -9 -47 -25 -276 -20 -285 4
-6 8 -30 9 -54 4 -80 64 -142 154 -159 17 -4 32 -4 32 0 0 3 -39 43 -86 89
-61 58 -84 86 -78 96 5 7 11 68 14 135 7 148 13 160 120 218 78 43 119 85 84
85 -11 -1 -45 -12 -78 -25z"/>
<path d="M1005 3824 c-62 -16 -90 -29 -121 -57 -36 -31 -74 -94 -74 -122 0
-21 21 -19 156 10 145 31 255 33 301 5 40 -24 65 -61 72 -108 l7 -37 129 1
c198 1 268 33 296 136 9 37 9 44 -7 55 -32 23 -76 15 -138 -27 l-60 -39 -47
35 c-64 47 -199 108 -283 129 -72 17 -196 28 -231 19z"/>
<path d="M4990 3761 c-32 -9 -50 -45 -50 -102 l0 -46 -102 -48 c-727 -337
-1447 -571 -2043 -661 -162 -25 -207 -28 -450 -28 -238 0 -284 2 -388 22 -271
51 -506 156 -647 288 -54 50 -54 50 -70 226 -12 137 -28 178 -69 178 -36 0
-46 -16 -56 -90 -5 -35 -26 -93 -60 -160 -98 -197 -118 -299 -118 -595 0 -372
81 -680 217 -831 126 -141 445 -218 1023 -246 556 -27 1124 28 1447 138 137
48 417 187 549 273 299 196 413 313 657 671 114 168 198 278 243 317 23 19 24
26 20 85 -4 52 -1 72 15 104 32 63 37 65 131 50 87 -14 138 -8 160 18 9 11 2
22 -35 55 -26 23 -72 55 -103 73 -148 82 -201 148 -216 266 -7 53 -10 56 -55
43z m10 -329 c0 -41 -33 -140 -62 -185 -77 -120 -263 -224 -448 -252 l-45 -6
-2 109 -1 110 49 22 c28 11 91 45 142 74 135 78 211 115 270 131 73 19 97 19
97 -3z m-694 -324 c-10 -63 -48 -140 -91 -183 -53 -52 -174 -107 -343 -155
-79 -22 -165 -49 -192 -60 l-49 -19 -11 57 c-7 31 -18 86 -25 122 -7 35 -12
67 -9 71 2 3 18 9 36 13 18 4 125 34 238 68 160 48 424 122 449 127 2 1 1 -18
-3 -41z m-3161 -15 c-18 -42 -25 -52 -25 -34 0 14 28 71 35 71 3 0 -2 -17 -10
-37z m152 -208 c-6 -84 -36 -225 -48 -225 -4 0 -19 14 -33 31 -45 53 -30 157
38 274 28 48 29 48 39 24 5 -13 7 -60 4 -104z m3435 -22 c-22 -27 -59 -79 -83
-118 -24 -38 -59 -89 -78 -113 -36 -45 -114 -98 -129 -88 -5 3 -15 26 -21 51
-30 119 65 234 239 290 112 36 119 34 72 -22z m-3247 27 c8 -13 92 -55 128
-64 36 -9 35 -36 -4 -120 -24 -52 -30 -74 -25 -101 8 -40 9 -40 -37 -20 -20 8
-51 15 -70 15 l-33 0 -12 70 c-7 39 -12 91 -12 116 0 74 42 141 65 104z m1964
-48 c6 -21 19 -79 29 -129 l19 -91 -46 -6 c-25 -3 -111 -22 -191 -42 -111 -27
-175 -37 -272 -41 l-128 -6 0 116 0 116 38 11 c33 9 440 93 502 103 14 2 28 5
32 6 4 0 12 -16 17 -37z m-1600 -77 c23 -8 94 -19 159 -24 65 -6 131 -13 148
-17 l30 -6 -4 -91 c-2 -51 -6 -94 -8 -96 -9 -10 -323 19 -379 35 -70 19 -71
19 -57 37 6 7 18 46 27 86 21 103 18 100 84 76z m871 -120 l0 -115 -205 0
-205 0 0 23 c0 13 9 50 20 82 11 32 20 65 20 74 0 13 8 16 38 13 20 -1 87 6
147 16 61 11 127 20 148 21 l37 1 0 -115z m1556 -23 c1 -72 30 -156 65 -188
24 -22 24 -28 -3 -41 -13 -6 -93 -59 -178 -119 -177 -123 -329 -216 -341 -208
-5 3 -9 15 -9 27 0 11 -25 71 -56 131 -45 88 -58 123 -62 171 l-4 61 93 28
c115 34 278 100 396 160 48 25 90 45 93 45 3 1 5 -29 6 -67z m-722 -226 c-11
-45 17 -147 67 -245 27 -53 51 -109 54 -126 l6 -30 -118 -34 c-327 -94 -429
-113 -534 -97 l-44 6 0 68 c0 37 -4 121 -9 187 l-9 121 109 23 c107 22 279 76
399 125 78 32 87 32 79 2z m-2314 -316 c0 -31 -6 -23 -50 69 -64 133 -64 160
0 51 35 -59 50 -96 50 -120z m204 55 c30 -44 108 -216 102 -222 -5 -6 -170 38
-194 52 -23 12 -24 14 -7 15 11 0 31 7 43 16 28 19 29 57 2 115 -11 24 -20 59
-20 78 0 34 0 34 20 16 11 -10 36 -41 54 -70z m1399 -87 c2 -90 7 -173 12
-185 6 -19 2 -23 -32 -32 -43 -11 -152 -16 -295 -13 -96 2 -98 3 -98 26 0 13
-11 83 -25 156 -14 73 -25 138 -25 145 0 9 38 14 138 18 88 3 164 12 212 25
119 31 108 45 113 -140z m-1148 92 c32 -11 66 -20 75 -20 12 0 19 -11 23 -33
3 -19 24 -77 46 -130 23 -53 41 -99 41 -103 0 -10 -87 3 -140 21 l-45 15 0 53
c0 45 -7 62 -48 128 -26 42 -47 79 -47 82 0 12 36 7 95 -13z m432 -5 c91 -27
147 -117 168 -273 l7 -54 -83 8 c-46 4 -104 12 -128 18 -41 10 -45 14 -66 71
-12 33 -39 95 -59 139 -21 43 -34 82 -29 86 21 21 127 24 190 5z"/>
<path d="M3125 3517 c-35 -17 -60 -43 -69 -74 -10 -30 16 -40 142 -54 126 -15
132 -18 132 -77 0 -42 -5 -51 -46 -93 -35 -35 -47 -56 -51 -87 -5 -40 -5 -41
35 -53 104 -31 178 52 189 210 8 111 0 141 -45 172 -77 55 -227 84 -287 56z"/>
<path d="M3484 3502 c-11 -11 -14 -26 -10 -50 12 -79 61 -97 243 -89 100 5
146 3 189 -9 31 -8 59 -12 61 -10 9 9 -8 44 -25 51 -9 4 -88 6 -175 6 -181 -2
-232 8 -249 45 -10 22 -9 27 5 35 23 13 21 25 -3 32 -12 3 -27 -2 -36 -11z"/>
<path d="M2882 3309 c-62 -11 -99 -28 -128 -61 -68 -74 -27 -93 174 -83 130 7
141 6 181 -15 25 -12 47 -18 52 -13 16 16 31 123 20 137 -24 29 -210 51 -299
35z"/>
<path d="M4371 1964 c-111 -33 -136 -44 -486 -209 -634 -301 -744 -329 -1430
-360 -345 -16 -458 -15 -642 11 -265 36 -472 128 -553 247 -14 20 -28 37 -33
37 -11 0 3 -49 29 -100 53 -106 177 -177 364 -211 89 -16 412 -18 950 -6 392
9 470 15 625 52 222 52 387 118 795 315 168 81 350 167 405 189 152 63 146 60
100 60 -22 0 -78 -11 -124 -25z"/>
<path d="M4695 1966 c-38 -13 -174 -75 -300 -138 -786 -390 -1468 -574 -2302
-620 -320 -18 -596 6 -803 68 -100 30 -221 91 -277 139 l-41 34 -4 90 c-2 50
-7 93 -11 97 -17 17 -37 -21 -37 -70 0 -90 16 -124 94 -201 84 -83 162 -125
300 -160 300 -76 1034 -45 1640 70 390 74 837 206 1177 348 241 101 640 307
694 358 18 17 -59 8 -130 -15z"/>
<path d="M2270 1571 c-190 -3 -340 -9 -335 -13 41 -26 328 -34 745 -19 168 6
182 8 155 20 -37 17 -122 19 -565 12z"/>
</g>
</svg>
